<svg width="953" height="647" viewBox="0 0 953 647" fill="none" xmlns="http://www.w3.org/2000/svg">
    <g id="Card">
        <path 
            id="Vector" 
            d="M933.102 1.25278H234.898C224.185 1.25278 215.5 9.9374 215.5 20.6504V480.855C215.5 491.568 224.185 500.253 234.898 500.253H933.102C943.815 500.253 952.5 491.568 952.5 480.855V20.6504C952.5 9.9374 943.815 1.25278 933.102 1.25278Z" stroke="#3F3D56" stroke-miterlimit="10"/>
        <path 
            id="Vector_2" 
            d="M215.5 49.093H952.5" 
            stroke="#3F3D56" 
            stroke-miterlimit="10"/>
        <path 
            id="Vector_3" 
            opacity="0.3" 
            d="M849.907 161.253H663.093C659.175 161.253 656 164.428 656 168.345V185.16C656 189.077 659.175 192.253 663.093 192.253H849.907C853.825 192.253 857 189.077 857 185.16V168.345C857 164.428 853.825 161.253 849.907 161.253Z" fill="#6C63FF"/>
        <path 
            id="Vector_4" 
            opacity="0.3" 
            d="M888.407 247.253H624.593C620.675 247.253 617.5 250.428 617.5 254.345V265.16C617.5 269.077 620.675 272.253 624.593 272.253H888.407C892.325 272.253 895.5 269.077 895.5 265.16V254.345C895.5 250.428 892.325 247.253 888.407 247.253Z" fill="#6C63FF"/>
        <path 
            id="Vector_5" 
            opacity="0.3" 
            d="M888.407 315.253H624.593C620.675 315.253 617.5 318.428 617.5 322.345V333.16C617.5 337.077 620.675 340.253 624.593 340.253H888.407C892.325 340.253 895.5 337.077 895.5 333.16V322.345C895.5 318.428 892.325 315.253 888.407 315.253Z" fill="#6C63FF"/>
        <path 
            id="Vector_6" 
            opacity="0.3" 
            d="M888.407 383.253H624.593C620.675 383.253 617.5 386.428 617.5 390.345V401.16C617.5 405.077 620.675 408.253 624.593 408.253H888.407C892.325 408.253 895.5 405.077 895.5 401.16V390.345C895.5 386.428 892.325 383.253 888.407 383.253Z" fill="#6C63FF"/>
        <path 
            id="Vector_7" 
            d="M849.907 160H663.093C659.175 160 656 163.175 656 167.093V183.907C656 187.825 659.175 191 663.093 191H849.907C853.825 191 857 187.825 857 183.907V167.093C857 163.175 853.825 160 849.907 160Z" stroke="#3F3D56" stroke-miterlimit="10"/>
        <path 
            id="Vector_8" 
            d="M887.907 246H624.093C620.175 246 617 249.175 617 253.093V263.907C617 267.825 620.175 271 624.093 271H887.907C891.825 271 895 267.825 895 263.907V253.093C895 249.175 891.825 246 887.907 246Z" stroke="#3F3D56" stroke-miterlimit="10"/>
        <path 
            id="Vector_9" 
            d="M888.907 313H625.093C621.175 313 618 316.175 618 320.093V330.907C618 334.825 621.175 338 625.093 338H888.907C892.825 338 896 334.825 896 330.907V320.093C896 316.175 892.825 313 888.907 313Z" stroke="#3F3D56" stroke-miterlimit="10"/>
        <path 
            id="Vector_10" 
            d="M886.907 384H623.093C619.175 384 616 387.175 616 391.093V401.907C616 405.825 619.175 409 623.093 409H886.907C890.825 409 894 405.825 894 401.907V391.093C894 387.175 890.825 384 886.907 384Z" stroke="#3F3D56" stroke-miterlimit="10"/>
        <path 
            id="Vector_11" 
            opacity="0.3" 
            d="M271.5 46.2528C279.784 46.2528 286.5 39.537 286.5 31.2528C286.5 22.9685 279.784 16.2528 271.5 16.2528C263.216 16.2528 256.5 22.9685 256.5 31.2528C256.5 39.537 263.216 46.2528 271.5 46.2528Z" fill="#6C63FF"/>
        <path 
            id="Vector_12" 
            opacity="0.3" 
            d="M313.5 46.2528C321.784 46.2528 328.5 39.537 328.5 31.2528C328.5 22.9685 321.784 16.2528 313.5 16.2528C305.216 16.2528 298.5 22.9685 298.5 31.2528C298.5 39.537 305.216 46.2528 313.5 46.2528Z" fill="#6C63FF"/>
        <path 
            id="Vector_13" 
            opacity="0.3" 
            d="M355.5 46.2528C363.784 46.2528 370.5 39.537 370.5 31.2528C370.5 22.9685 363.784 16.2528 355.5 16.2528C347.216 16.2528 340.5 22.9685 340.5 31.2528C340.5 39.537 347.216 46.2528 355.5 46.2528Z" fill="#6C63FF"/>
        <path 
            id="Vector_14" 
            d="M272 45C280.284 45 287 38.2843 287 30C287 21.7157 280.284 15 272 15C263.716 15 257 21.7157 257 30C257 38.2843 263.716 45 272 45Z" stroke="#3F3D56" stroke-miterlimit="10"/>
        <path 
            id="Vector_15" 
            d="M315 44C323.284 44 330 37.2843 330 29C330 20.7157 323.284 14 315 14C306.716 14 300 20.7157 300 29C300 37.2843 306.716 44 315 44Z" stroke="#3F3D56" stroke-miterlimit="10"/>
        <path 
            id="Vector_16"
            d="M355 43C363.284 43 370 36.2843 370 28C370 19.7157 363.284 13 355 13C346.716 13 340 19.7157 340 28C340 36.2843 346.716 43 355 43Z" stroke="#3F3D56" stroke-miterlimit="10"/>
        <path 
            id="Vector_17" 
            d="M448.354 479.253C445.843 467.684 445.177 451.883 446.021 440.892C446.021 440.892 433.323 385.106 423.332 379.901L423.328 379.904C423.175 380.101 418.327 386.458 417.711 406.128C417.087 426.111 410.012 439.225 410.012 439.225C410.012 439.225 412.301 464.133 410.992 479.253L448.354 479.253Z" fill="#6C63FF"/>
        <path 
            id="Vector_18" 
            d="M540.728 124.253H310.272C307.15 124.253 304.059 124.868 301.175 126.062C298.291 127.257 295.67 129.008 293.463 131.215C291.255 133.423 289.504 136.043 288.31 138.927C287.115 141.812 286.5 144.903 286.5 148.024V455.481C286.5 458.603 287.115 461.694 288.31 464.578C289.504 467.462 291.255 470.083 293.463 472.29C295.67 474.498 298.291 476.249 301.175 477.443C304.059 478.638 307.15 479.253 310.272 479.253H391.127C388.427 468.053 385.07 450.562 388.469 438.4L388.468 438.392L388.47 438.398C388.629 437.83 388.797 437.27 388.986 436.727C391.321 428.834 392.1 420.563 391.278 412.373C392.779 405.375 392.779 398.139 391.278 391.141C388.78 379.486 387.032 368.036 387.032 368.036C387.032 368.036 385.655 352.634 386.857 343.192C386.883 342.984 386.914 342.788 386.943 342.586C386.519 342.49 386.281 342.434 386.281 342.434C386.281 342.434 389.82 326.406 391.069 316.207C391.364 313.799 391.752 310.746 392.172 307.492C391.019 307.3 389.884 307.013 388.779 306.632C377.539 302.677 374 266.874 374 266.874V255.53C374 255.53 370.253 238.149 383.367 230.447C395.995 223.031 401.037 221.001 401.393 220.861C401.489 220.792 401.583 220.729 401.681 220.653C403.109 219.533 404.238 218.079 404.971 216.42C404.989 216.134 404.993 215.85 404.983 215.568C404.77 211.501 401.939 207.802 399.253 204.575C396.962 201.823 394.671 199.07 392.38 196.318C391.595 195.498 390.991 194.522 390.609 193.453C390.464 192.863 390.401 192.256 390.422 191.649C390.42 191.425 390.422 191.2 390.426 190.976C390.464 188.924 390.519 186.872 390.594 184.821C390.658 183.029 391.109 180.767 392.864 180.399C393.777 180.207 394.985 180.541 395.468 179.743C395.63 179.414 395.671 179.039 395.585 178.683C395.579 178.709 395.577 178.737 395.57 178.763C395.564 178.73 395.558 178.696 395.552 178.663C395.191 177.226 394.973 175.757 394.901 174.277C394.882 173.609 394.977 172.943 395.183 172.307C396.2 169.332 399.701 168.111 402.795 167.55C405.889 166.988 409.361 166.506 411.303 164.033C411.823 163.212 412.387 162.419 412.992 161.659C413.883 160.849 414.977 160.297 416.158 160.062C419.998 159.09 424.055 159.45 427.664 161.083C429.16 161.766 430.664 162.686 432.305 162.582C434.01 162.474 435.467 161.274 437.15 160.982C439.869 160.51 442.469 162.547 443.809 164.96C444.66 166.495 445.086 168.229 445.042 169.983C445.074 171.73 444.444 173.423 443.278 174.724C442.108 175.966 440.361 176.818 439.876 178.454C439.678 179.119 439.724 179.836 439.549 180.508C439.527 180.592 439.491 180.671 439.463 180.752C439.495 180.794 439.53 180.833 439.561 180.875C441.608 183.572 442.98 186.72 443.563 190.056C444.146 193.391 443.922 196.818 442.911 200.049C441.9 203.281 440.13 206.223 437.75 208.632C435.37 211.04 432.449 212.845 429.229 213.894C429.221 214.105 429.213 214.316 429.214 214.527C429.154 215.839 429.376 217.149 429.866 218.368C430.356 219.587 431.102 220.686 432.054 221.592L450.601 229.198C450.601 229.198 461.767 227.845 465.796 244.508C466.442 247.277 466.674 250.127 466.486 252.965C466.339 255.478 466.681 259.901 469.543 265.625C474.122 274.784 473.082 295.807 463.715 297.889C454.842 299.861 451.391 299.032 451.051 298.939L451.031 299.307C451.177 303.252 452.581 337.276 457.678 341.393C459.088 342.532 458.819 343.301 457.662 343.819L457.665 343.822C457.665 343.822 457.674 344.041 457.696 344.434C457.849 346.923 458.636 356.399 462.048 361.791C466.004 368.036 465.589 404.049 465.589 404.049L468.293 425.281C468.293 425.281 466.629 438.394 468.293 440.683C469.239 441.981 470.384 462.086 471.198 479.253H540.728C547.033 479.253 553.079 476.748 557.537 472.29C561.995 467.832 564.5 461.786 564.5 455.481V148.024C564.5 144.903 563.885 141.812 562.69 138.927C561.496 136.043 559.745 133.423 557.537 131.215C555.33 129.008 552.709 127.257 549.825 126.062C546.941 124.868 543.85 124.253 540.728 124.253V124.253Z" fill="#6C63FF"/>
        <path 
            id="Vector_19" 
            d="M540.228 125H309.772C296.643 125 286 135.643 286 148.772V456.228C286 469.357 296.643 480 309.772 480H540.228C553.357 480 564 469.357 564 456.228V148.772C564 135.643 553.357 125 540.228 125Z" stroke="#3F3D56" stroke-miterlimit="10"/>
    </g>

        <g id="Man">
        <path 
            id="Vector_20" 
            d="M95.8242 226.631C95.8242 226.631 86.5 223.874 84.5 226.874C82.5 229.874 87.2267 251.621 87.2267 251.621L107.773 252.87L100.602 234.763L95.8242 226.631Z" fill="#2F2E41"/>
        <path 
            id="Vector_21" 
            d="M23.9442 405.221C23.9442 405.221 42.6388 446.263 28.2418 444.974C13.8448 443.684 8.25784 405.221 8.25784 405.221H23.9442Z" fill="#A0616A"/>
        <path 
            id="Vector_22" 
            d="M146.211 400.945C146.211 400.945 138.01 445.292 151.667 440.556C165.323 435.819 161.431 397.147 161.431 397.147L146.211 400.945Z" fill="#A0616A"/>
        <path 
            id="Vector_23" 
            d="M91.8466 216.34C91.8466 216.34 91.6318 236.969 99.5824 238.043C107.533 239.117 95.0699 250.076 95.0699 250.076L80.8877 252.87L60.474 251.366L51.449 239.762C51.449 239.762 67.3502 232.241 60.474 208.819L91.8466 216.34Z" fill="#A0616A"/>
        <path 
            id="Vector_24" 
            opacity="0.1" 
            d="M91.8466 216.34C91.8466 216.34 91.6318 236.969 99.5824 238.043C107.533 239.117 95.0699 250.076 95.0699 250.076L80.8877 252.87L60.474 251.366L51.449 239.762C51.449 239.762 67.3502 232.241 60.474 208.819L91.8466 216.34Z" fill="black"/>
        <path 
            id="Vector_25" 
            d="M128.376 390.824C128.376 390.824 138.476 412.527 130.525 480.644C130.525 480.644 132.889 504.711 130.955 509.223C129.021 513.736 113.12 574.977 113.12 574.977C113.12 574.977 92.7062 579.489 89.9127 565.952C89.9127 565.952 92.7062 546.613 92.4913 543.604C92.2764 540.596 97.0038 507.719 97.0038 507.719L87.3341 444.114L80.0281 501.487C80.0281 501.487 80.0281 518.033 77.6644 521.686C75.3008 525.339 77.6644 598.829 77.6644 598.829C77.6644 598.829 84.3258 610.003 74.2263 610.217C64.1269 610.432 55.1019 610.003 54.2423 602.911C53.3828 595.82 52.9531 588.729 50.8042 584.432C48.6554 580.134 45.862 530.926 46.5066 513.736C47.1513 496.545 32.3245 408.229 37.0518 398.989C41.7792 389.749 128.376 390.824 128.376 390.824Z" fill="#2F2E41"/>
        <path 
            id="Vector_26" 
            d="M80.8877 224.076C95.1288 224.076 106.673 212.531 106.673 198.29C106.673 184.049 95.1288 172.504 80.8877 172.504C66.6466 172.504 55.102 184.049 55.102 198.29C55.102 212.531 66.6466 224.076 80.8877 224.076Z" fill="#A0616A"/>
        <path 
            id="Vector_27" 
            d="M55.1019 240.192C55.1019 240.192 70.7883 251.795 93.5657 242.556C93.5657 242.556 101.087 238.903 100.442 233.316C99.7973 227.729 116.128 278.226 116.128 278.226L132.674 366.112L131.815 401.997C131.815 401.997 124.509 398.344 101.731 406.51C78.9538 414.675 41.7793 397.27 41.7793 397.27L43.0686 305.086L44.3579 251.366L47.796 239.547C47.796 239.547 49.515 236.324 55.1019 240.192Z" fill="#F2F2F2"/>
        <path 
            id="Vector_28" 
            d="M92.5632 225.767C92.5632 225.767 96.3592 225.15 100.012 230.952C103.665 236.754 112.26 240.407 112.26 240.407C112.26 240.407 133.104 241.696 136.112 252.87C139.121 264.044 146.641 279.3 150.294 307.45C153.947 335.599 161.253 380.509 162.328 384.162C163.402 387.815 160.824 398.989 163.832 402.427C166.84 405.865 142.559 405.865 142.559 405.865C142.559 405.865 140.41 388.245 138.906 388.245C137.401 388.245 137.831 400.064 139.335 408.659C140.84 417.254 128.376 408.659 128.376 408.659C128.376 408.659 118.707 369.336 109.467 333.88C100.227 298.425 94.855 278.87 96.574 270.92C98.293 262.969 103.02 240.192 99.5823 238.043C96.1442 235.894 92.5632 225.767 92.5632 225.767Z" fill="#2F2E41"/>
        <path 
            id="Vector_29" 
            d="M61.5755 225.748C61.5755 225.748 55.9615 228.803 41.7793 238.903C27.5971 249.002 17.9275 256.738 17.9275 256.738C17.9275 256.738 12.3406 261.035 8.90249 286.606C5.4644 312.177 -2.27135 378.361 0.737002 386.741C3.74535 395.121 4.81975 400.064 3.74534 405.006C2.67093 409.948 26.3079 409.733 26.7376 408.659C27.1674 407.584 26.093 388.03 27.1674 387.6C28.2418 387.171 34.0436 399.204 35.118 409.303C36.1924 419.403 48.6555 427.353 51.449 427.353C54.2425 427.353 68.6395 369.121 68.8544 329.368C69.0693 289.615 64.127 256.093 60.474 251.366C56.821 246.638 61.5755 225.748 61.5755 225.748Z" fill="#2F2E41"/>
        <path 
            id="Vector_30" 
            d="M99.3675 576.911C99.3675 576.911 101.087 572.183 107.103 573.688C113.12 575.192 117.203 569.82 117.203 569.82C117.203 569.82 120.426 569.39 118.277 573.473C116.128 577.555 114.409 580.349 114.409 580.349C114.409 580.349 127.302 609.788 118.922 616.879C110.541 623.97 100.872 619.672 100.872 619.672C100.872 619.672 91.4169 613.011 91.8467 595.391C91.8467 595.391 91.4169 589.804 86.2598 580.779C81.1026 571.754 77.2348 558.001 83.4663 555.423C89.6978 552.844 91.3018 552.748 91.3018 552.748C91.3018 552.748 88.3858 566.086 95.918 570.746L99.3675 576.911Z" fill="#3F3D56"/>
        <path 
            id="Vector_31" 
            d="M59.3996 610.217C59.3996 610.217 54.2424 600.548 62.8377 599.473C71.4329 598.399 80.6728 597.754 80.2431 602.267C79.8133 606.779 78.7389 613.656 78.7389 613.656L80.2431 618.598C80.2431 618.598 80.6728 630.846 82.177 632.35C83.6811 633.854 91.8466 646.747 74.4413 646.747C57.0359 646.747 51.8787 644.813 53.3829 640.73C54.8871 636.648 55.3168 616.449 55.3168 616.449L59.3996 610.217Z" fill="#3F3D56"/>
        <path 
            id="Vector_32" 
            d="M72.7222 177.661C72.7222 177.661 84.7556 180.885 90.9871 182.174C97.2187 183.463 96.574 179.81 96.574 179.81C96.574 179.81 104.74 180.885 104.31 180.025C103.88 179.166 107.748 174.653 103.235 169.496C98.7229 164.339 100.012 160.471 100.012 160.471H96.1443L95.0699 158.967H89.0532C89.0532 158.967 84.5407 157.248 72.7222 158.967C60.9037 160.686 44.7876 161.116 43.4983 168.207C42.209 175.298 35.5477 184.108 37.9114 188.191C40.2751 192.273 53.8126 209.034 55.1019 216.125C56.3912 223.216 62.4112 224.792 62.1947 220.351C61.9781 215.91 55.9614 200.439 61.1186 199.794C66.2757 199.15 75.0859 186.042 72.7222 177.661Z" fill="#2F2E41"/>
    </g>
</svg>
